<svg width="38" height="38" viewBox="0 0 38 38" fill="none" xmlns="http://www.w3.org/2000/svg">
<rect x="0.5" y="0.497559" width="37" height="37.0049" rx="18.5" stroke="#0B5AA5"/>
<path d="M16 12C15.7348 12 15.4804 12.1054 15.2929 12.2929C15.1054 12.4804 15 12.7348 15 13C15 13.2652 15.1054 13.5196 15.2929 13.7071C15.4804 13.8947 15.7348 14 16 14C16.2652 14 16.5196 13.8947 16.7071 13.7071C16.8946 13.5196 17 13.2652 17 13C17 12.7348 16.8946 12.4804 16.7071 12.2929C16.5196 12.1054 16.2652 12 16 12ZM13.17 12C13.3766 11.4145 13.7597 10.9074 14.2666 10.5488C14.7735 10.1902 15.3791 9.99756 16 9.99756C16.6209 9.99756 17.2265 10.1902 17.7334 10.5488C18.2403 10.9074 18.6234 11.4145 18.83 12H26C26.2652 12 26.5196 12.1054 26.7071 12.2929C26.8946 12.4804 27 12.7348 27 13C27 13.2652 26.8946 13.5196 26.7071 13.7071C26.5196 13.8947 26.2652 14 26 14H18.83C18.6234 14.5855 18.2403 15.0926 17.7334 15.4512C17.2265 15.8099 16.6209 16.0025 16 16.0025C15.3791 16.0025 14.7735 15.8099 14.2666 15.4512C13.7597 15.0926 13.3766 14.5855 13.17 14H12C11.7348 14 11.4804 13.8947 11.2929 13.7071C11.1054 13.5196 11 13.2652 11 13C11 12.7348 11.1054 12.4804 11.2929 12.2929C11.4804 12.1054 11.7348 12 12 12H13.17ZM22 18C21.7348 18 21.4804 18.1054 21.2929 18.2929C21.1054 18.4804 21 18.7348 21 19C21 19.2652 21.1054 19.5196 21.2929 19.7071C21.4804 19.8947 21.7348 20 22 20C22.2652 20 22.5196 19.8947 22.7071 19.7071C22.8946 19.5196 23 19.2652 23 19C23 18.7348 22.8946 18.4804 22.7071 18.2929C22.5196 18.1054 22.2652 18 22 18ZM19.17 18C19.3766 17.4145 19.7597 16.9074 20.2666 16.5488C20.7735 16.1902 21.3791 15.9976 22 15.9976C22.6209 15.9976 23.2265 16.1902 23.7334 16.5488C24.2403 16.9074 24.6234 17.4145 24.83 18H26C26.2652 18 26.5196 18.1054 26.7071 18.2929C26.8946 18.4804 27 18.7348 27 19C27 19.2652 26.8946 19.5196 26.7071 19.7071C26.5196 19.8947 26.2652 20 26 20H24.83C24.6234 20.5855 24.2403 21.0926 23.7334 21.4512C23.2265 21.8099 22.6209 22.0025 22 22.0025C21.3791 22.0025 20.7735 21.8099 20.2666 21.4512C19.7597 21.0926 19.3766 20.5855 19.17 20H12C11.7348 20 11.4804 19.8947 11.2929 19.7071C11.1054 19.5196 11 19.2652 11 19C11 18.7348 11.1054 18.4804 11.2929 18.2929C11.4804 18.1054 11.7348 18 12 18H19.17ZM16 24C15.7348 24 15.4804 24.1054 15.2929 24.2929C15.1054 24.4804 15 24.7348 15 25C15 25.2652 15.1054 25.5196 15.2929 25.7071C15.4804 25.8947 15.7348 26 16 26C16.2652 26 16.5196 25.8947 16.7071 25.7071C16.8946 25.5196 17 25.2652 17 25C17 24.7348 16.8946 24.4804 16.7071 24.2929C16.5196 24.1054 16.2652 24 16 24ZM13.17 24C13.3766 23.4145 13.7597 22.9074 14.2666 22.5488C14.7735 22.1902 15.3791 21.9976 16 21.9976C16.6209 21.9976 17.2265 22.1902 17.7334 22.5488C18.2403 22.9074 18.6234 23.4145 18.83 24H26C26.2652 24 26.5196 24.1054 26.7071 24.2929C26.8946 24.4804 27 24.7348 27 25C27 25.2652 26.8946 25.5196 26.7071 25.7071C26.5196 25.8947 26.2652 26 26 26H18.83C18.6234 26.5855 18.2403 27.0926 17.7334 27.4512C17.2265 27.8099 16.6209 28.0025 16 28.0025C15.3791 28.0025 14.7735 27.8099 14.2666 27.4512C13.7597 27.0926 13.3766 26.5855 13.17 26H12C11.7348 26 11.4804 25.8947 11.2929 25.7071C11.1054 25.5196 11 25.2652 11 25C11 24.7348 11.1054 24.4804 11.2929 24.2929C11.4804 24.1054 11.7348 24 12 24H13.17Z" fill="#0B5AA5"/>
</svg>
